<?xml version="1.0" encoding="UTF-8" standalone="no"?><!DOCTYPE svg PUBLIC "-//W3C//DTD SVG 1.1//EN" "http://www.w3.org/Graphics/SVG/1.1/DTD/svg11.dtd"><svg width="100%" height="100%" viewBox="0 0 876 272" version="1.1" xmlns="http://www.w3.org/2000/svg" xmlns:xlink="http://www.w3.org/1999/xlink" xml:space="preserve" xmlns:serif="http://www.serif.com/" style="fill-rule:evenodd;clip-rule:evenodd;stroke-linejoin:round;stroke-miterlimit:2;"><path d="M377.467,97.232c0.055,-1.102 -0.341,-2.177 -1.093,-2.981l-79.504,-85.006c-0.98,-1.046 -2.43,-1.511 -3.839,-1.2l-40.353,8.703l-40.423,-16.449c-0.488,-0.198 -1.01,-0.299 -1.537,-0.299l-43.966,-0c-0.527,-0 -1.048,0.101 -1.536,0.299l-40.424,16.449l-40.352,-8.703c-1.408,-0.311 -2.857,0.154 -3.838,1.2l-79.504,85.006c-0.752,0.804 -1.148,1.879 -1.093,2.981c0.053,1.102 0.549,2.134 1.376,2.864l50.548,44.532l15.553,46.657c0.414,1.242 1.4,2.211 2.651,2.6c0.398,0.125 0.809,0.187 1.216,0.187c0.87,-0 1.732,-0.279 2.446,-0.816l29.355,-22.015c0.957,-0.719 1.55,-1.821 1.623,-3.013l0.292,-4.774l25.012,50.369c0.275,0.555 0.674,1.04 1.165,1.417l15.901,12.231c0.058,0.045 0.128,0.06 0.188,0.101c0.027,0.018 0.051,0.041 0.077,0.058c0.057,0.038 0.096,0.091 0.155,0.125c0.008,0.005 0.018,0.006 0.027,0.012c0.164,0.094 0.343,0.15 0.518,0.22c0.109,0.045 0.213,0.099 0.326,0.135c0.05,0.015 0.096,0.045 0.147,0.058c0.213,0.057 0.436,0.066 0.657,0.087l0,10.652c0,0.776 0.221,1.535 0.637,2.191l14.661,23.034c0.551,0.863 1.406,1.489 2.397,1.752l20.432,5.41c0.036,0.012 0.072,0.017 0.108,0.029l0.253,0.066c0.239,0.063 0.482,0.075 0.724,0.095c0.085,0.005 0.166,0.041 0.251,0.041c0.012,-0 0.023,-0.004 0.034,-0.004c0.011,0 0.023,0.004 0.034,0.004c0.086,-0 0.166,-0.036 0.251,-0.041c0.243,-0.02 0.486,-0.032 0.724,-0.095l0.254,-0.066c0.035,-0.012 0.072,-0.017 0.108,-0.029l20.432,-5.41c0.991,-0.263 1.846,-0.889 2.396,-1.752l14.662,-23.034c0.415,-0.656 0.637,-1.415 0.637,-2.191l0,-10.652c0.221,-0.021 0.444,-0.03 0.657,-0.088c0.05,-0.012 0.096,-0.042 0.146,-0.057c0.114,-0.036 0.217,-0.09 0.327,-0.135c0.174,-0.07 0.354,-0.126 0.518,-0.22c0.008,-0.006 0.018,-0.007 0.027,-0.012c0.059,-0.034 0.098,-0.087 0.154,-0.125c0.027,-0.017 0.051,-0.04 0.078,-0.058c0.059,-0.041 0.13,-0.056 0.187,-0.101l15.901,-12.231c0.491,-0.377 0.891,-0.862 1.166,-1.417l25.012,-50.367l0.292,4.772c0.073,1.192 0.666,2.294 1.623,3.013l29.356,22.015c0.714,0.537 1.575,0.816 2.446,0.816c0.407,-0 0.818,-0.062 1.216,-0.187c1.251,-0.389 2.237,-1.358 2.651,-2.6l15.553,-46.657l50.548,-44.532c0.827,-0.73 1.323,-1.762 1.376,-2.864" style="fill:#c99700;fill-rule:nonzero;"/><path d="M122.109,88.78l18.347,-15.595l16.818,13.761l-15.595,11.619l-19.57,-9.785Z" style="fill:#1a0b07;fill-rule:nonzero;"/><path d="M55.448,142.291l43.688,-43.727l2.791,49.407l-1.223,20.007l-29.355,22.016l-15.901,-47.703Z" style="fill:#bda342;fill-rule:nonzero;"/><path d="M4.076,97.036l79.504,-85.008l41.586,8.97l-27.52,52.187l1.489,25.38l-43.687,43.727l-51.372,-45.256Z" style="fill:#f7db6d;fill-rule:nonzero;"/><path d="M188.736,4.078l-0,18.958l-63.569,-2.038l41.587,-16.92l21.982,-0Z" style="fill:#f8e195;fill-rule:nonzero;"/><path d="M97.646,73.185l91.09,-50.148l-63.569,-2.039l-27.521,52.187Z" style="fill:#ddc55e;fill-rule:nonzero;"/><path d="M97.646,73.185l24.463,15.595l18.347,-15.595l48.28,-50.148l-91.09,50.148Z" style="fill:#f8e195;fill-rule:nonzero;"/><path d="M122.109,88.78l-20.182,59.191l-4.281,-74.786l24.463,15.595Z" style="fill:#ddc55e;fill-rule:nonzero;"/><path d="M157.274,86.945l16.512,22.551l-71.859,38.475l39.752,-49.406l15.595,-11.62Z" style="fill:#f0d86e;fill-rule:nonzero;"/><path d="M122.109,88.78l19.57,9.785l-39.752,49.406l20.182,-59.191Z" style="fill:#f0d770;fill-rule:nonzero;"/><path d="M188.736,23.036l-0,87.301l-14.95,-0.841l-16.512,-22.551l-16.818,-13.761l48.28,-50.148Z" style="fill:#bda342;fill-rule:nonzero;"/><path d="M101.927,147.971l57.895,11.444l0,-11.416l-57.895,-0.028Z" style="fill:#d8bf56;fill-rule:nonzero;"/><path d="M188.736,110.337l-0,22.839l-27.283,14.823l-59.526,-0.028l71.859,-38.475l14.95,0.841Z" style="fill:#f8e195;fill-rule:nonzero;"/><path d="M159.822,159.416l-10.193,64.826l-15.901,-12.231l-31.801,-64.039l57.895,11.444Z" style="fill:#f0d770;fill-rule:nonzero;"/><path d="M149.629,224.242l35.471,-27.724l3.635,-4.892l-15.867,-8.97l-13.046,-23.24l-10.193,64.826Z" style="fill:#29180e;fill-rule:nonzero;"/><path d="M188.736,191.625l-0,17.938l-39.106,14.678l39.106,-32.616Z" style="fill:#080200;fill-rule:nonzero;"/><path d="M153.315,222.86l0,16.06l14.661,23.036l20.793,5.504l-0.034,-57.896l-35.42,13.296Z" style="fill:#bc7797;fill-rule:nonzero;"/><path d="M255.363,88.78l-18.347,-15.595l-16.818,13.761l15.595,11.619l19.57,-9.785Z" style="fill:#1a0b07;fill-rule:nonzero;"/><path d="M322.024,142.291l-43.688,-43.727l-2.791,49.407l1.223,20.007l29.355,22.016l15.901,-47.703Z" style="fill:#bda342;fill-rule:nonzero;"/><path d="M373.395,97.036l-79.504,-85.008l-41.587,8.97l27.521,52.187l-1.49,25.38l43.688,43.727l51.372,-45.256Z" style="fill:#f7db6d;fill-rule:nonzero;"/><path d="M188.736,4.078l-0,18.958l63.569,-2.038l-41.587,-16.92l-21.982,-0Z" style="fill:#f8e195;fill-rule:nonzero;"/><path d="M279.825,73.185l-91.09,-50.148l63.569,-2.039l27.521,52.187Z" style="fill:#ddc55e;fill-rule:nonzero;"/><path d="M279.825,73.185l-24.463,15.595l-18.347,-15.595l-48.28,-50.148l91.09,50.148Z" style="fill:#f8e195;fill-rule:nonzero;"/><path d="M255.363,88.78l20.182,59.191l4.281,-74.786l-24.463,15.595Z" style="fill:#ddc55e;fill-rule:nonzero;"/><path d="M220.198,86.945l-16.513,22.551l71.86,38.475l-39.752,-49.406l-15.595,-11.62Z" style="fill:#f0d86e;fill-rule:nonzero;"/><path d="M255.363,88.78l-19.57,9.785l39.752,49.406l-20.182,-59.191Z" style="fill:#f0d770;fill-rule:nonzero;"/><path d="M188.736,23.036l-0,87.301l14.949,-0.841l16.513,-22.551l16.818,-13.761l-48.28,-50.148Z" style="fill:#bda342;fill-rule:nonzero;"/><path d="M275.544,147.971l-57.895,11.444l0,-11.416l57.895,-0.028Z" style="fill:#d8bf56;fill-rule:nonzero;"/><path d="M188.736,110.337l-0,22.839l27.283,14.823l59.526,-0.028l-71.86,-38.475l-14.949,0.841Z" style="fill:#f8e195;fill-rule:nonzero;"/><path d="M217.649,159.416l10.193,64.826l15.9,-12.231l31.802,-64.039l-57.895,11.444Z" style="fill:#f0d770;fill-rule:nonzero;"/><path d="M227.842,224.242l-35.471,-27.724l-3.635,-4.892l15.866,-8.97l13.047,-23.24l10.193,64.826Z" style="fill:#29180e;fill-rule:nonzero;"/><path d="M216.018,147.999l-27.283,-14.823l-27.282,14.823l-1.631,0l0,11.416l13.046,23.24l15.867,8.969l15.867,-8.969l13.047,-23.24l0,-11.416l-1.631,0Z" style="fill:#080200;fill-rule:nonzero;"/><path d="M188.736,191.625l-0,17.938l39.106,14.678l-39.106,-32.616Z" style="fill:#080200;fill-rule:nonzero;"/><path d="M224.156,222.86l0,16.06l-14.661,23.036l-20.794,5.504l0.035,-57.896l35.42,13.296Z" style="fill:#bc7797;fill-rule:nonzero;"/><path d="M152.129,208.341l-8.616,-6.931l-14.881,-34.452l11.748,37.102l0,13.067l9.249,7.114l2.5,-15.9Z" style="fill:#070506;fill-rule:nonzero;"/><path d="M225.335,208.341l8.616,-6.931l14.882,-34.452l-11.749,37.102l-0,13.067l-9.249,7.114l-2.5,-15.9Z" style="fill:#070506;fill-rule:nonzero;"/><path d="M503.004,97.41c0,11.072 -2.943,21.007 -8.823,29.804c-5.882,8.797 -14.01,15.221 -24.388,19.273c-7.119,2.766 -13.693,4.152 -19.719,4.152c-7.712,-0 -13.544,-0.644 -17.497,-1.929c-12.157,-3.952 -22.165,-11.119 -30.024,-21.496c-7.858,-10.381 -11.787,-21.945 -11.787,-34.695c0,-15.025 5.879,-28.147 17.643,-39.366c11.762,-11.216 25.156,-16.828 40.181,-16.828c11.069,-0 20.409,1.83 28.021,5.486l5.487,2.522l-12.9,14.084c-5.536,-3.062 -12.157,-4.595 -19.866,-4.595c-10.181,-0 -19.274,3.756 -27.282,11.269c-8.005,7.512 -12.007,16.306 -12.007,26.39l0.295,0.443c0,10.48 3.558,19.819 10.674,28.024c7.413,8.6 16.309,12.899 26.689,12.899c8.006,-0 15.272,-2.223 21.793,-6.671c7.017,-4.844 11.219,-11.023 12.604,-18.535l-28.022,-0l0,-17.79l48.928,-0l0,7.559Z" style="fill:#c99700;fill-rule:nonzero;"/><path d="M571.057,114.461c-0,-5.434 -1.953,-10.008 -5.855,-13.714c-3.907,-3.706 -8.627,-5.56 -14.161,-5.56c-5.536,0 -10.304,1.854 -14.309,5.56c-4.003,3.706 -6.003,8.327 -6.003,13.863c-0,5.241 2.123,9.689 6.375,13.342c3.953,3.56 8.6,5.34 13.937,5.34c5.337,0 10.008,-1.803 14.01,-5.413c4.003,-3.606 6.006,-8.081 6.006,-13.418m18.828,0c-0,10.281 -3.88,18.854 -11.639,25.725c-7.758,6.87 -16.828,10.304 -27.205,10.304c-10.18,0 -19.128,-3.41 -26.836,-10.231c-8.008,-7.116 -12.01,-15.717 -12.01,-25.798c-0,-10.474 3.902,-19.224 11.714,-26.244c7.509,-6.72 16.552,-10.081 27.132,-10.081c10.574,0 19.62,3.361 27.132,10.081c7.806,7.02 11.712,15.77 11.712,26.244" style="fill:#c99700;fill-rule:nonzero;"/><path d="M619.389,148.118l-18.828,-0l-0,-109.125l18.386,-0l0.442,109.125Z" style="fill:#c99700;fill-rule:nonzero;"/><path d="M688.184,113.276c-0,-6.128 -1.684,-11.169 -5.041,-15.125c-3.36,-3.952 -8.058,-5.929 -14.087,-5.929c-5.536,0 -10.031,2.173 -13.491,6.522c-3.065,4.055 -4.595,8.949 -4.595,14.678c-0,5.636 1.577,10.331 4.744,14.087c3.261,4.053 7.61,6.079 13.046,6.079c6.028,0 10.774,-1.854 14.234,-5.56c3.46,-3.706 5.19,-8.624 5.19,-14.752m17.939,36.029l-10.081,-8.304c-5.932,7.116 -15.371,10.277 -28.32,9.488c-10.181,0 -18.682,-3.606 -25.502,-10.823c-6.82,-7.213 -10.227,-15.963 -10.227,-26.244c-0,-10.673 3.211,-19.643 9.635,-26.909c6.424,-7.266 14.925,-10.896 25.502,-10.896c3.361,0 6.547,0.22 9.562,0.665c3.014,0.446 6.697,2.053 11.046,4.818l-0,-42.107l18.385,0l-0,110.312Z" style="fill:#c99700;fill-rule:nonzero;"/><path d="M781.738,107.198c-3.953,-8.697 -11.269,-13.441 -21.942,-14.236c-11.468,0.795 -19.373,5.539 -23.722,14.236l45.664,-0Zm14.828,26.687c-3.559,4.744 -7.811,8.7 -12.752,11.861c-4.944,3.161 -12.553,4.545 -22.834,4.152c-14.728,0.393 -25.502,-3.164 -32.319,-10.677c-6.92,-6.325 -10.084,-15.022 -9.491,-26.094c-0.989,-7.906 2.471,-15.814 10.38,-23.722c7.905,-7.908 17.792,-11.861 29.654,-11.861c12.254,-0.393 22.238,3.656 29.947,12.157c7.712,8.504 11.565,18.289 11.565,29.358l-64.05,-0c2.372,10.281 10.477,15.814 24.314,16.605c9.093,-0 15.815,-2.967 20.165,-8.896l15.421,7.117Z" style="fill:#c99700;fill-rule:nonzero;"/><path d="M875.439,148.118l-18.828,-0l-0,-40.624c-0,-4.943 -0.695,-8.351 -2.076,-10.23c-1.684,-2.077 -4.945,-3.115 -9.788,-3.115c-9.093,-0 -13.638,5.634 -13.638,16.902l-0,37.067l-18.831,-0l-0,-68.498l9.934,8.598c5.534,-6.323 12.846,-9.686 21.942,-10.081c20.854,-0 31.285,9.884 31.285,29.653l-0,40.328Z" style="fill:#c99700;fill-rule:nonzero;"/><path d="M620.847,163.41l-0.141,9.69c-6.747,1.142 -9.908,4.159 -9.48,9.053l-0,16.606l-9.052,-0l-0,-32.927l4.135,4.135c3.8,-3.232 8.646,-5.419 14.538,-6.557" style="fill:#fff;fill-rule:nonzero;"/><path d="M657.051,179.088c-1.899,-4.182 -5.415,-6.463 -10.547,-6.844c-5.513,0.381 -9.312,2.662 -11.403,6.844l21.95,0Zm7.129,12.828c-1.713,2.279 -3.754,4.182 -6.132,5.701c-2.375,1.522 -6.034,2.185 -10.976,1.996c-7.078,0.189 -12.256,-1.521 -15.535,-5.13c-3.325,-3.041 -4.846,-7.223 -4.562,-12.545c-0.475,-3.8 1.187,-7.6 4.991,-11.404c3.8,-3.8 8.551,-5.7 14.254,-5.7c5.891,-0.19 10.69,1.757 14.394,5.844c3.707,4.085 5.56,8.791 5.56,14.11l-30.789,0c1.141,4.945 5.037,7.604 11.687,7.982c4.373,0 7.604,-1.425 9.695,-4.276l7.413,3.422Z" style="fill:#fff;fill-rule:nonzero;"/><path d="M698.388,182.794c-0,-2.803 -0.845,-5.131 -2.531,-6.984c-1.686,-1.854 -3.932,-2.781 -6.736,-2.781c-2.612,0 -4.703,0.962 -6.271,2.886c-1.569,1.924 -2.352,4.217 -2.352,6.879c-0,2.757 0.736,5.059 2.211,6.911c1.519,1.997 3.61,3.041 6.269,3.138c0.19,-0.047 0.95,-0.144 2.281,-0.287c0.997,-0.047 1.997,-0.425 2.994,-1.138c2.757,-1.9 4.135,-4.776 4.135,-8.624m8.908,0c-0,4.895 -1.452,9.075 -4.348,12.542c-3.135,3.659 -7.103,5.489 -11.903,5.489c-4.088,0 -7.507,-1.238 -10.262,-3.707l-0,20.383l-9.049,0l-0,-51.6l4.987,4.349c2.281,-3.041 6.272,-4.75 11.973,-5.132c6.272,0 10.975,1.737 14.113,5.202c2.99,3.328 4.489,7.484 4.489,12.474" style="fill:#fff;fill-rule:nonzero;"/><path d="M740.434,182.581c-0,-2.612 -0.938,-4.812 -2.815,-6.595c-1.877,-1.78 -4.144,-2.671 -6.806,-2.671c-2.659,-0 -4.952,0.891 -6.876,2.671c-1.924,1.783 -2.889,4.006 -2.889,6.665c-0,2.519 1.024,4.657 3.068,6.413c1.897,1.712 4.131,2.566 6.697,2.566c2.565,-0 4.811,-0.865 6.735,-2.601c1.924,-1.733 2.886,-3.883 2.886,-6.448m9.052,-0c-0,4.941 -1.865,9.063 -5.595,12.365c-3.73,3.302 -8.087,4.953 -13.078,4.953c-4.894,-0 -9.192,-1.639 -12.9,-4.918c-3.849,-3.421 -5.773,-7.556 -5.773,-12.4c-0,-5.037 1.877,-9.242 5.63,-12.614c3.613,-3.232 7.958,-4.848 13.043,-4.848c5.085,-0 9.434,1.616 13.043,4.848c3.753,3.372 5.63,7.577 5.63,12.614" style="fill:#fff;fill-rule:nonzero;"/><path d="M773.005,163.41l-0.141,9.69c-6.747,1.142 -9.908,4.159 -9.48,9.053l0,16.606l-9.052,-0l0,-32.927l4.135,4.135c3.8,-3.232 8.647,-5.419 14.538,-6.557" style="fill:#fff;fill-rule:nonzero;"/><path d="M798.305,173.458l-6.199,0l-0,25.3l-9.052,0l-0,-25.3l-4.56,-0.073l4.56,-8.123l-0,-11.761l9.052,0l-0,11.761l6.199,0l-0,8.196Z" style="fill:#fff;fill-rule:nonzero;"/><path d="M828.806,188.78c-0,3.04 -1.234,5.656 -3.703,7.841c-2.472,2.184 -5.703,3.181 -9.694,2.993c-4.941,-0.381 -8.838,-1.712 -11.688,-3.99l3.99,-5.989c2.851,1.141 5.701,1.971 8.554,2.497c1.71,-0.335 2.851,-1.118 3.419,-2.352c-0.191,-1.807 -1.448,-3.161 -3.776,-4.064c-4.229,-2.232 -6.581,-3.54 -7.056,-3.921c-2.519,-1.9 -3.776,-4.155 -3.776,-6.771c-0,-2.803 1.114,-5.154 3.348,-7.055c2.232,-1.9 4.777,-2.85 7.627,-2.85c2.566,-0 4.727,0.619 6.486,1.853c1.519,0.475 2.944,1.378 4.276,2.706l-4.276,4.848c-2.093,-1.141 -4.395,-1.71 -6.914,-1.71c-0.428,-0 -0.844,0.179 -1.247,0.534c-0.404,0.358 -0.606,0.774 -0.606,1.246c-0,0.857 1.305,1.83 3.92,2.923c3.516,1.473 5.915,2.71 7.199,3.707c2.612,1.994 3.917,4.513 3.917,7.554" style="fill:#fff;fill-rule:nonzero;"/></svg>